<?xml version="1.0" encoding="UTF-8" standalone="no"?>
<svg
   version="1.1"
   viewBox="0 0 373 171"
   width="373pt"
   height="171pt"
   id="svg40"
   sodipodi:docname="Logo - Vector - 2.svg"
   inkscape:version="1.3.1 (91b66b0783, 2023-11-16)"
   xmlns:inkscape="http://www.inkscape.org/namespaces/inkscape"
   xmlns:sodipodi="http://sodipodi.sourceforge.net/DTD/sodipodi-0.dtd"
   xmlns:xlink="http://www.w3.org/1999/xlink"
   xmlns="http://www.w3.org/2000/svg"
   xmlns:svg="http://www.w3.org/2000/svg">
  <sodipodi:namedview
     id="namedview40"
     pagecolor="#000000"
     bordercolor="#000000"
     borderopacity="0.25"
     inkscape:showpageshadow="2"
     inkscape:pageopacity="0.0"
     inkscape:pagecheckerboard="0"
     inkscape:deskcolor="#d1d1d1"
     inkscape:document-units="pt"
     inkscape:zoom="1.191"
     inkscape:cx="464.73552"
     inkscape:cy="332.91352"
     inkscape:window-width="1920"
     inkscape:window-height="1051"
     inkscape:window-x="1920"
     inkscape:window-y="0"
     inkscape:window-maximized="1"
     inkscape:current-layer="svg40" />
  <defs
     id="defs1">
    <path
       d="M 0,0 H 500 V 500 H 0 Z m 213.44,214.47 c 13.97,-8.17 28.24,-14.71 44.55,-16.38 19.74,-2.26 39.11,3.71 55.31,14.89 -4.15,0.88 -8.58,1.43 -12.55,2.97 -1.73,0.67 -1.46,2.12 -1.35,3.64 2.78,1.49 6.53,1.39 9.61,1.63 6.6,0.13 13.41,0.65 19.97,-0.23 2.79,-0.24 4.45,-3.01 3.59,-5.61 -1.16,-3.41 -2.72,-6.68 -3.85,-10.11 -1.31,-3.44 -2.37,-7.42 -4.59,-10.39 -2.5,-2.87 -7.71,-0.13 -7.87,3.28 0.17,2.13 1.09,4.28 1.74,6.3 -16.56,-11.38 -37.05,-16.54 -57.03,-15.02 -15.14,1.15 -29.92,6.23 -42.01,15.53 -2.33,1.83 -4.87,3.73 -6.65,6.12 0.27,1.15 0.72,2.28 1.13,3.38 z m -66.31,19.26 c -0.01,10.43 0.01,20.86 -0.05,31.28 0.1,2.32 -0.07,5.5 1.45,7.41 1.89,2.24 4.82,2.41 7.52,1.87 0.38,-1.02 0.74,-2.05 1.07,-3.09 -1.71,-0.4 -3.48,-0.69 -5.13,-1.27 -0.65,-2.17 -0.59,-4.67 -0.62,-6.93 0.08,-9.75 0.04,-19.51 0.04,-29.26 -1.43,-0.01 -2.85,-0.01 -4.28,-0.01 z m 15.49,0.01 c -0.01,10.42 0.01,20.84 -0.05,31.27 0.11,2.39 -0.06,5.83 1.7,7.69 1.87,2.18 5.56,1.6 8.15,1.83 -0.14,-1.18 -0.29,-2.35 -0.44,-3.52 -1.41,-0.28 -2.89,-0.51 -4.26,-0.95 -0.9,-1.75 -0.8,-4.12 -0.87,-6.05 0.08,-10.1 0.05,-20.19 0.05,-30.28 -1.43,0 -2.85,0 -4.28,0.01 z m -55.23,30.53 c -1.16,-0.59 -2.32,-1.18 -3.48,-1.77 -1.69,2.73 -3.01,5.96 -6.25,7.15 -4.4,1.63 -10.37,0.99 -13.6,-2.7 -2.94,-3.26 -3.65,-7.71 -3.7,-11.95 0.04,-4.47 0.83,-9.23 4.14,-12.5 3.19,-3.16 8.33,-3.63 12.49,-2.58 3.06,0.74 4.83,3.39 6.84,5.59 1.08,-0.78 2.17,-1.55 3.25,-2.32 -1.85,-2.34 -3.35,-4.8 -6.12,-6.15 -7.6,-3.37 -17.64,-1.75 -22.24,5.68 -4.1,6.49 -4.2,16.5 -0.73,23.27 4.18,8.41 15.51,10.9 23.37,6.36 3.12,-1.9 4.39,-4.99 6.03,-8.08 z m 162.08,-28.34 c -0.01,12.69 0,25.38 0,38.06 7.62,0.01 15.25,0.02 22.87,0 0,-1.24 0,-2.47 0,-3.71 -6.12,-0.01 -12.23,-0.01 -18.35,-0.01 -0.01,-11.45 0.01,-22.89 -0.01,-34.34 -1.5,0 -3.01,0 -4.51,0 z m -60.19,3.26 c -0.01,2 -0.01,4.01 -0.01,6.02 -1.67,0.01 -3.33,0.03 -5,0.04 0,1.16 0,2.32 0,3.49 1.67,0.01 3.34,0.02 5,0.03 0.07,5.76 -0.13,11.52 0.02,17.27 0.15,2.87 0.58,5.75 3.26,7.36 3.81,2.12 7.44,0.77 11.32,-0.21 -0.41,-1.16 -0.82,-2.32 -1.23,-3.48 -2.67,0.39 -6.81,2.31 -8.46,-0.93 -1.35,-6.4 -0.3,-13.47 -0.6,-20.02 3.08,0 6.16,-0.01 9.24,-0.01 0,-1.17 0,-2.34 0,-3.51 -3.08,-0.01 -6.16,-0.01 -9.24,-0.02 0,-2.25 -0.01,-4.5 -0.02,-6.76 -1.43,0.24 -2.86,0.49 -4.28,0.73 z m -88.8,6.41 c -4.12,1.47 -6.76,5.16 -7.6,9.36 -1.04,4.95 -0.59,11.33 2.79,15.36 3.66,4.49 10.72,5.2 15.84,3.15 4.32,-1.79 6.73,-5.93 7.32,-10.44 0.63,-4.92 0.1,-10.65 -3.4,-14.48 -3.64,-4 -10.06,-4.63 -14.95,-2.95 z m 56.62,3.88 c 0.73,1.1 1.45,2.21 2.18,3.31 3.53,-3.01 6.82,-5.33 11.75,-4.02 3.06,0.54 4.05,5.03 1.3,6.55 -3.71,1.88 -8.48,1.8 -12.22,3.82 -5.59,2.81 -4.87,12.7 1.06,14.7 5.11,1.74 9.22,0.49 12.87,-3.3 0.96,1.01 1.83,2.6 3.12,3.17 1.69,0.37 3.45,0.45 5.17,0.61 -0.12,-1.24 -0.23,-2.48 -0.34,-3.72 -1.14,0.02 -2.27,0.04 -3.4,0.05 -0.56,-5.23 -0.33,-10.43 -0.37,-15.67 -0.12,-2.84 -0.08,-5.8 -2.32,-7.88 -2.48,-2.37 -6.73,-2.61 -9.94,-2.22 -3.62,0.44 -6.04,2.53 -8.86,4.6 z m 50.49,-4.24 c 0,1.17 0,2.34 0,3.51 5.14,0 10.28,-0.01 15.43,0.06 -3.14,4.25 -6.3,8.49 -9.5,12.7 -2.99,4.05 -6.33,7.16 -7.05,12.42 7.17,0.13 14.35,0.06 21.53,0.06 -0.02,-1.17 -0.03,-2.34 -0.04,-3.5 -5.43,0 -10.86,0.01 -16.28,-0.04 4.46,-6.12 9.04,-12.13 13.64,-18.14 1.7,-2.08 2.37,-4.43 2.96,-7 -6.9,-0.15 -13.8,-0.06 -20.69,-0.07 z m 78.63,-0.03 c -4.56,1.11 -7.72,4.78 -8.74,9.27 -1.11,5 -0.82,11.39 2.46,15.57 3.56,4.63 10.5,5.48 15.71,3.57 4.14,-1.55 6.73,-5.33 7.51,-9.59 0.95,-4.92 0.45,-11.26 -2.98,-15.2 -3.38,-3.97 -9.12,-4.78 -13.96,-3.62 z m 33,0 c -4.56,1.11 -7.71,4.78 -8.74,9.27 -1.11,5 -0.82,11.39 2.46,15.57 3.56,4.63 10.5,5.48 15.71,3.57 4.14,-1.55 6.73,-5.33 7.51,-9.59 0.95,-4.92 0.45,-11.26 -2.98,-15.2 -3.38,-3.97 -9.12,-4.78 -13.96,-3.62 z m 25.51,0.06 c -0.02,13.46 0,26.92 -0.01,40.39 1.42,0.01 2.85,0.01 4.27,0.02 0.01,-5.17 0.04,-10.34 -0.05,-15.51 1.83,1.43 3.82,3.25 6.07,3.93 4.4,1.2 9.63,0.17 12.6,-3.49 2.89,-3.52 3.44,-8.26 3.22,-12.66 -0.21,-3.83 -1.31,-7.89 -4.25,-10.54 -2.8,-2.54 -6.96,-3.13 -10.56,-2.38 -2.89,0.62 -4.96,2.86 -7.11,4.71 0.04,-1.5 0.08,-3 0.12,-4.5 -1.44,0.01 -2.87,0.02 -4.3,0.03 z m 33.65,21.21 c -0.93,0.97 -1.86,1.95 -2.79,2.93 4.7,5.22 12.1,6.72 18.41,3.57 4.63,-2.48 5.2,-9.9 1.13,-13.11 -3.52,-2.49 -8.79,-2.39 -12.46,-4.56 -2.34,-1.69 -1.81,-5.66 1.05,-6.51 4.17,-1.45 7.32,0.3 10.82,2.36 0.87,-0.86 1.75,-1.72 2.62,-2.58 -4.69,-4.2 -11.15,-5.13 -16.77,-2.25 -4.27,2.4 -4.46,9.04 -0.67,11.94 3.45,2.53 8.73,2.51 12.35,4.64 2.65,2.15 1.54,6.55 -1.77,7.38 -4.95,1.51 -8.36,-0.64 -11.92,-3.81 z M 204.54,321.2 c -0.83,-2.23 -1.65,-4.46 -2.47,-6.69 16.45,10.99 36.2,16.3 55.95,15.15 15.38,-0.85 30.39,-5.64 42.88,-14.76 2.76,-2.07 5.79,-4.24 7.85,-7.03 -0.28,-1.14 -0.73,-2.26 -1.14,-3.37 -14.84,8.74 -30.21,15.43 -47.61,16.64 -19.08,1.5 -37.43,-4.54 -53.13,-15.15 5.24,-0.97 10.21,-1.49 14.86,-4.32 -0.51,-1.02 -1.02,-2.04 -1.52,-3.06 -8.7,-0.99 -17.52,-1.33 -26.27,-0.94 -2.19,0.26 -4.67,0.15 -5.97,2.26 -1.59,2.37 0.05,4.93 0.91,7.22 2.42,5.3 3.69,11.37 6.7,16.34 1.31,2.12 3.97,2.38 5.91,0.97 1.14,-0.92 2.09,-2.15 3.05,-3.26 z"
       id="p0" />
    <path
       d="m 260.97,189.44 c 19.98,-1.52 40.47,3.64 57.03,15.02 -0.65,-2.02 -1.57,-4.17 -1.74,-6.3 0.16,-3.41 5.37,-6.15 7.87,-3.28 2.22,2.97 3.28,6.95 4.59,10.39 1.13,3.43 2.69,6.7 3.85,10.11 0.86,2.6 -0.8,5.37 -3.59,5.61 -6.56,0.88 -13.37,0.36 -19.97,0.23 -3.08,-0.24 -6.83,-0.14 -9.61,-1.63 -0.11,-1.52 -0.38,-2.97 1.35,-3.64 3.97,-1.54 8.4,-2.09 12.55,-2.97 -16.2,-11.18 -35.57,-17.15 -55.31,-14.89 -16.31,1.67 -30.58,8.21 -44.55,16.38 -0.41,-1.1 -0.86,-2.23 -1.13,-3.38 1.78,-2.39 4.32,-4.29 6.65,-6.12 12.09,-9.3 26.87,-14.38 42.01,-15.53 z"
       id="p1" />
    <path
       d="m 147.13,233.73 c 1.43,0 2.85,0 4.28,0.01 0,9.75 0.04,19.51 -0.04,29.26 0.03,2.26 -0.03,4.76 0.62,6.93 1.65,0.58 3.42,0.87 5.13,1.27 -0.33,1.04 -0.69,2.07 -1.07,3.09 -2.7,0.54 -5.63,0.37 -7.52,-1.87 -1.52,-1.91 -1.35,-5.09 -1.45,-7.41 0.06,-10.42 0.04,-20.85 0.05,-31.28 z"
       id="p2" />
    <path
       d="m 162.62,233.74 c 1.43,-0.01 2.85,-0.01 4.28,-0.01 0,10.09 0.03,20.18 -0.05,30.28 0.07,1.93 -0.03,4.3 0.87,6.05 1.37,0.44 2.85,0.67 4.26,0.95 0.15,1.17 0.3,2.34 0.44,3.52 -2.59,-0.23 -6.28,0.35 -8.15,-1.83 -1.76,-1.86 -1.59,-5.3 -1.7,-7.69 0.06,-10.43 0.04,-20.85 0.05,-31.27 z"
       id="p3" />
    <path
       d="m 100.96,237.04 c 2.77,1.35 4.27,3.81 6.12,6.15 -1.08,0.77 -2.17,1.54 -3.25,2.32 -2.01,-2.2 -3.78,-4.85 -6.84,-5.59 -4.16,-1.05 -9.3,-0.58 -12.49,2.58 -3.31,3.27 -4.1,8.03 -4.14,12.5 0.05,4.24 0.76,8.69 3.7,11.95 3.23,3.69 9.2,4.33 13.6,2.7 3.24,-1.19 4.56,-4.42 6.25,-7.15 1.16,0.59 2.32,1.18 3.48,1.77 -1.64,3.09 -2.91,6.18 -6.03,8.08 -7.86,4.54 -19.19,2.05 -23.37,-6.36 -3.47,-6.77 -3.37,-16.78 0.73,-23.27 4.6,-7.43 14.64,-9.05 22.24,-5.68 z"
       id="p4" />
    <path
       d="m 269.47,235.93 c 1.5,0 3.01,0 4.51,0 0.02,11.45 0,22.89 0.01,34.34 6.12,0 12.23,0 18.35,0.01 0,1.24 0,2.47 0,3.71 -7.62,0.02 -15.25,0.01 -22.87,0 0,-12.68 -0.01,-25.37 0,-38.06 z"
       id="p5" />
    <path
       d="m 209.28,239.19 c 1.42,-0.24 2.85,-0.49 4.28,-0.73 0.01,2.26 0.02,4.51 0.02,6.76 3.08,0.01 6.16,0.01 9.24,0.02 0,1.17 0,2.34 0,3.51 -3.08,0 -6.16,0.01 -9.24,0.01 0.3,6.55 -0.75,13.62 0.6,20.02 1.65,3.24 5.79,1.32 8.46,0.93 0.41,1.16 0.82,2.32 1.23,3.48 -3.88,0.98 -7.51,2.33 -11.32,0.21 -2.68,-1.61 -3.11,-4.49 -3.26,-7.36 -0.15,-5.75 0.05,-11.51 -0.02,-17.27 -1.66,-0.01 -3.33,-0.02 -5,-0.03 0,-1.17 0,-2.33 0,-3.49 1.67,-0.01 3.33,-0.03 5,-0.04 0,-2.01 0,-4.02 0.01,-6.02 z"
       id="p6" />
    <path
       d="m 120.48,245.6 c 4.89,-1.68 11.31,-1.05 14.95,2.95 3.5,3.83 4.03,9.56 3.4,14.48 -0.59,4.51 -3,8.65 -7.32,10.44 -5.12,2.05 -12.18,1.34 -15.84,-3.15 -3.38,-4.03 -3.83,-10.41 -2.79,-15.36 0.84,-4.2 3.48,-7.89 7.6,-9.36 z m 0.98,3.88 c -3.25,1.63 -4.25,5.09 -4.53,8.47 -0.19,3.05 0.04,6.72 1.74,9.37 3.33,5.12 13,4.45 14.95,-1.67 1.34,-4 1.36,-9.03 -0.4,-12.91 -2.08,-4.31 -7.75,-5.08 -11.76,-3.26 z"
       id="p7" />
    <path
       d="m 185.96,244.88 c 3.21,-0.39 7.46,-0.15 9.94,2.22 2.24,2.08 2.2,5.04 2.32,7.88 0.04,5.24 -0.19,10.44 0.37,15.67 1.13,-0.01 2.26,-0.03 3.4,-0.05 0.11,1.24 0.22,2.48 0.34,3.72 -1.72,-0.16 -3.48,-0.24 -5.17,-0.61 -1.29,-0.57 -2.16,-2.16 -3.12,-3.17 -3.65,3.79 -7.76,5.04 -12.87,3.3 -5.93,-2 -6.65,-11.89 -1.06,-14.7 3.74,-2.02 8.51,-1.94 12.22,-3.82 2.75,-1.52 1.76,-6.01 -1.3,-6.55 -4.93,-1.31 -8.22,1.01 -11.75,4.02 -0.73,-1.1 -1.45,-2.21 -2.18,-3.31 2.82,-2.07 5.24,-4.16 8.86,-4.6 z m 8.33,13.83 c -3.55,1.07 -7.27,1.68 -10.76,2.93 -3.82,1.18 -3.71,7.54 -0.14,8.95 3.1,1.23 6.9,0.44 8.9,-2.33 1.89,-2.5 1.68,-6.56 2,-9.55 z"
       id="p8" />
    <path
       d="m 227.59,245.24 c 6.89,0.01 13.79,-0.08 20.69,0.07 -0.59,2.57 -1.26,4.92 -2.96,7 -4.6,6.01 -9.18,12.02 -13.64,18.14 5.42,0.05 10.85,0.04 16.28,0.04 0.01,1.16 0.02,2.33 0.04,3.5 -7.18,0 -14.36,0.07 -21.53,-0.06 0.72,-5.26 4.06,-8.37 7.05,-12.42 3.2,-4.21 6.36,-8.45 9.5,-12.7 -5.15,-0.07 -10.29,-0.06 -15.43,-0.06 0,-1.17 0,-2.34 0,-3.51 z"
       id="p9" />
    <path
       d="m 306.22,245.21 c 4.84,-1.16 10.58,-0.35 13.96,3.62 3.43,3.94 3.93,10.28 2.98,15.2 -0.78,4.26 -3.37,8.04 -7.51,9.59 -5.21,1.91 -12.15,1.06 -15.71,-3.57 -3.28,-4.18 -3.57,-10.57 -2.46,-15.57 1.02,-4.49 4.18,-8.16 8.74,-9.27 z m 0.09,4.11 c -5.49,2.28 -5.52,10.79 -4.23,15.57 1.46,6.26 10.06,7.61 14.32,3.52 2.31,-2.41 2.73,-6.25 2.67,-9.43 -0.13,-3.15 -0.75,-6.63 -3.35,-8.72 -2.56,-1.98 -6.49,-2.12 -9.41,-0.94 z"
       id="p10" />
    <path
       d="m 339.22,245.21 c 4.84,-1.16 10.58,-0.35 13.96,3.62 3.43,3.94 3.93,10.28 2.98,15.2 -0.78,4.26 -3.37,8.04 -7.51,9.59 -5.21,1.91 -12.15,1.06 -15.71,-3.57 -3.28,-4.18 -3.57,-10.57 -2.46,-15.57 1.03,-4.49 4.18,-8.16 8.74,-9.27 z m 0.09,4.11 c -5.49,2.28 -5.52,10.79 -4.23,15.57 1.46,6.26 10.07,7.61 14.33,3.52 2.3,-2.41 2.72,-6.25 2.66,-9.43 -0.13,-3.15 -0.75,-6.63 -3.35,-8.72 -2.56,-1.98 -6.49,-2.12 -9.41,-0.94 z"
       id="p11" />
    <path
       d="m 364.73,245.27 c 1.43,-0.01 2.86,-0.02 4.3,-0.03 -0.04,1.5 -0.08,3 -0.12,4.5 2.15,-1.85 4.22,-4.09 7.11,-4.71 3.6,-0.75 7.76,-0.16 10.56,2.38 2.94,2.65 4.04,6.71 4.25,10.54 0.22,4.4 -0.33,9.14 -3.22,12.66 -2.97,3.66 -8.2,4.69 -12.6,3.49 -2.25,-0.68 -4.24,-2.5 -6.07,-3.93 0.09,5.17 0.06,10.34 0.05,15.51 -1.42,-0.01 -2.85,-0.01 -4.27,-0.02 0.01,-13.47 -0.01,-26.93 0.01,-40.39 z m 9.5,3.94 c -3.24,1.35 -4.64,4.58 -5.07,7.86 -0.37,3.28 -0.15,7.22 1.65,10.09 3.04,5.1 12.14,4.72 14.41,-0.93 1.61,-3.72 1.59,-9.73 -0.12,-13.42 -1.9,-4.11 -6.92,-5.07 -10.87,-3.6 z"
       id="p12" />
    <path
       d="m 417.16,248.58 c -0.87,0.86 -1.75,1.72 -2.62,2.58 -3.5,-2.06 -6.65,-3.81 -10.82,-2.36 -2.86,0.85 -3.39,4.82 -1.05,6.51 3.67,2.17 8.94,2.07 12.46,4.56 4.07,3.21 3.5,10.63 -1.13,13.11 -6.31,3.15 -13.71,1.65 -18.41,-3.57 0.93,-0.98 1.86,-1.96 2.79,-2.93 3.56,3.17 6.97,5.32 11.92,3.81 3.31,-0.83 4.42,-5.23 1.77,-7.38 -3.62,-2.13 -8.9,-2.11 -12.35,-4.64 -3.79,-2.9 -3.6,-9.54 0.67,-11.94 5.62,-2.88 12.08,-1.95 16.77,2.25 z"
       id="p13" />
    <path
       d="m 121.46,249.48 c 4.01,-1.82 9.68,-1.05 11.76,3.26 1.76,3.88 1.74,8.91 0.4,12.91 -1.95,6.12 -11.62,6.79 -14.95,1.67 -1.7,-2.65 -1.93,-6.32 -1.74,-9.37 0.28,-3.38 1.28,-6.84 4.53,-8.47 z"
       id="p14" />
    <path
       d="m 306.31,249.32 c 2.92,-1.18 6.85,-1.04 9.41,0.94 2.6,2.09 3.22,5.57 3.35,8.72 0.06,3.18 -0.36,7.02 -2.67,9.43 -4.26,4.09 -12.86,2.74 -14.32,-3.52 -1.29,-4.78 -1.26,-13.29 4.23,-15.57 z"
       id="p15" />
    <path
       d="m 339.31,249.32 c 2.92,-1.18 6.85,-1.04 9.41,0.94 2.6,2.09 3.22,5.57 3.35,8.72 0.06,3.18 -0.36,7.02 -2.66,9.43 -4.26,4.09 -12.87,2.74 -14.33,-3.52 -1.29,-4.78 -1.26,-13.29 4.23,-15.57 z"
       id="p16" />
    <path
       d="m 374.23,249.21 c 3.95,-1.47 8.97,-0.51 10.87,3.6 1.71,3.69 1.73,9.7 0.12,13.42 -2.27,5.65 -11.37,6.03 -14.41,0.93 -1.8,-2.87 -2.02,-6.81 -1.65,-10.09 0.43,-3.28 1.83,-6.51 5.07,-7.86 z"
       id="p17" />
    <path
       d="m 194.29,258.71 c -0.32,2.99 -0.11,7.05 -2,9.55 -2,2.77 -5.8,3.56 -8.9,2.33 -3.57,-1.41 -3.68,-7.77 0.14,-8.95 3.49,-1.25 7.21,-1.86 10.76,-2.93 z"
       id="p18" />
    <path
       d="m 193.94,297.67 c 8.75,-0.39 17.57,-0.05 26.27,0.94 0.5,1.02 1.01,2.04 1.52,3.06 -4.65,2.83 -9.62,3.35 -14.86,4.32 15.7,10.61 34.05,16.65 53.13,15.15 17.4,-1.21 32.77,-7.9 47.61,-16.64 0.41,1.11 0.86,2.23 1.14,3.37 -2.06,2.79 -5.09,4.96 -7.85,7.03 -12.49,9.12 -27.5,13.91 -42.88,14.76 -19.75,1.15 -39.5,-4.16 -55.95,-15.15 0.82,2.23 1.64,4.46 2.47,6.69 -0.96,1.11 -1.91,2.34 -3.05,3.26 -1.94,1.41 -4.6,1.15 -5.91,-0.97 -3.01,-4.97 -4.28,-11.04 -6.7,-16.34 -0.86,-2.29 -2.5,-4.85 -0.91,-7.22 1.3,-2.11 3.78,-2 5.97,-2.26 z"
       id="p19" />
  </defs>
  <g
     id="g40">
    <use
       fill="#3f90f3"
       xlink:href="#p1"
       id="use22"
       transform="matrix(1.0018961,0,0,1.0026012,-60.65088,-174.67201)" />
    <use
       fill="#3f90f3"
       xlink:href="#p2"
       id="use23"
       transform="matrix(1.0018961,0,0,1.0026012,-60.65088,-174.67201)" />
    <use
       fill="#3f90f3"
       xlink:href="#p3"
       id="use24"
       transform="matrix(1.0018961,0,0,1.0026012,-60.65088,-174.67201)" />
    <use
       fill="#3f90f3"
       xlink:href="#p4"
       id="use25"
       transform="matrix(1.0018961,0,0,1.0026012,-60.65088,-174.67201)" />
    <use
       fill="#7fd858"
       xlink:href="#p5"
       id="use26"
       transform="matrix(1.0018961,0,0,1.0026012,-60.65088,-174.67201)" />
    <use
       fill="#3f90f3"
       xlink:href="#p6"
       id="use27"
       transform="matrix(1.0018961,0,0,1.0026012,-60.65088,-174.67201)" />
    <use
       fill="#3f90f3"
       xlink:href="#p7"
       id="use28"
       transform="matrix(1.0018961,0,0,1.0026012,-60.65088,-174.67201)" />
    <use
       fill="#3f90f3"
       xlink:href="#p8"
       id="use29"
       transform="matrix(1.0018961,0,0,1.0026012,-60.65088,-174.67201)" />
    <use
       fill="#3f90f3"
       xlink:href="#p9"
       id="use30"
       transform="matrix(1.0018961,0,0,1.0026012,-60.65088,-174.67201)" />
    <use
       fill="#7fd858"
       xlink:href="#p10"
       id="use31"
       transform="matrix(1.0018961,0,0,1.0026012,-60.65088,-174.67201)" />
    <use
       fill="#7fd858"
       xlink:href="#p11"
       id="use32"
       transform="matrix(1.0018961,0,0,1.0026012,-60.65088,-174.67201)" />
    <use
       fill="#7fd858"
       xlink:href="#p12"
       id="use33"
       transform="matrix(1.0018961,0,0,1.0026012,-60.65088,-174.67201)" />
    <use
       fill="#7fd858"
       xlink:href="#p13"
       id="use34"
       transform="matrix(1.0018961,0,0,1.0026012,-60.65088,-174.67201)" />
    <use
       fill="#ffffff"
       xlink:href="#p14"
       id="use35"
       transform="matrix(1.0018961,0,0,1.0026012,-60.65088,-174.67201)"
       style="fill:#ffffff;fill-opacity:0" />
    <use
       fill="#ffffff"
       xlink:href="#p15"
       id="use36"
       transform="matrix(1.0018961,0,0,1.0026012,-60.65088,-174.67201)"
       style="fill:#ffffff;fill-opacity:0.00003887" />
    <use
       fill="#ffffff"
       xlink:href="#p16"
       id="use37"
       transform="matrix(1.0018961,0,0,1.0026012,-60.65088,-174.67201)"
       style="fill:#ffffff;fill-opacity:0.00185678" />
    <use
       fill="#ffffff"
       xlink:href="#p17"
       id="use38"
       transform="matrix(1.0018961,0,0,1.0026012,-60.65088,-174.67201)"
       style="fill:#ffffff;fill-opacity:0" />
    <use
       fill="#ffffff"
       xlink:href="#p18"
       id="use39"
       transform="matrix(1.0018961,0,0,1.0026012,-60.65088,-174.67201)"
       style="fill:#ffffff;fill-opacity:0" />
    <use
       fill="#7fd858"
       xlink:href="#p19"
       id="use40"
       transform="matrix(1.0018961,0,0,1.0026012,-60.65088,-174.67201)" />
  </g>
</svg>
