<?xml version="1.0" encoding="UTF-8" standalone="no"?>
<svg
   version="1.1"
   viewBox="0 0 156 156"
   width="156pt"
   height="156pt"
   id="svg6"
   sodipodi:docname="Logo No Name - Vector - 2.svg"
   inkscape:version="1.3.1 (91b66b0783, 2023-11-16)"
   xmlns:inkscape="http://www.inkscape.org/namespaces/inkscape"
   xmlns:sodipodi="http://sodipodi.sourceforge.net/DTD/sodipodi-0.dtd"
   xmlns:xlink="http://www.w3.org/1999/xlink"
   xmlns="http://www.w3.org/2000/svg"
   xmlns:svg="http://www.w3.org/2000/svg">
  <sodipodi:namedview
     id="namedview6"
     pagecolor="#000000"
     bordercolor="#000000"
     borderopacity="0.25"
     inkscape:showpageshadow="2"
     inkscape:pageopacity="0.0"
     inkscape:pagecheckerboard="0"
     inkscape:deskcolor="#d1d1d1"
     inkscape:document-units="pt"
     inkscape:zoom="1.191"
     inkscape:cx="332.91352"
     inkscape:cy="333.33333"
     inkscape:window-width="1920"
     inkscape:window-height="1018"
     inkscape:window-x="0"
     inkscape:window-y="33"
     inkscape:window-maximized="1"
     inkscape:current-layer="svg6" />
  <defs
     id="defs1">
    <path
       d="M 0,0 H 500 V 500 H 0 Z m 213.67,214.39 c 13.86,-8.21 28.13,-14.62 44.34,-16.3 19.68,-2.24 39.11,3.68 55.24,14.89 -4.12,0.9 -8.47,1.46 -12.44,2.91 -1.71,0.6 -1.67,2.17 -1.33,3.67 1.72,1.29 4.45,1.23 6.51,1.47 6.66,0.38 13.37,0.59 20.03,0.3 2.5,-0.29 5.24,-0.06 6.39,-2.8 1.22,-2.53 -0.65,-5.01 -1.48,-7.35 -2.35,-5.26 -3.57,-11.56 -6.77,-16.34 -2.67,-2.76 -7.56,-0.15 -7.94,3.28 0.18,2.14 1.13,4.31 1.83,6.33 -16.62,-11.33 -37.06,-16.55 -57.09,-15.01 -17.63,1.31 -35.21,8.18 -47.91,20.68 -1.86,1.25 0.11,2.77 0.62,4.27 z m -9.23,67.92 c -0.81,-1.98 -1.6,-3.98 -2.38,-5.98 24.17,16.03 55.63,20.06 82.71,9.27 8.06,-3.26 15.63,-7.92 22.04,-13.8 0.68,-0.77 2.01,-1.7 2.01,-2.8 -0.46,-0.91 -0.92,-1.81 -1.4,-2.71 -17.88,10.81 -37.19,18.14 -58.44,16.67 -15.33,-0.97 -29.3,-6.81 -42.07,-15.08 4.42,-1.08 9.39,-1.49 13.49,-3.49 0.78,-0.96 0.29,-2.72 0.46,-3.91 -8.91,-1.11 -17.94,-1.51 -26.91,-1.09 -2.37,0.23 -4.71,0.21 -6.11,2.48 -1.34,2.26 -0.04,4.32 0.84,6.45 2.62,5.48 3.84,11.94 7.01,17.07 0.96,1.86 3.29,1.68 5.03,1.3 1.91,-0.51 2.74,-2.85 3.72,-4.38 z"
       id="p0" />
    <path
       d="m 260.96,189.44 c 20.03,-1.54 40.47,3.68 57.09,15.01 -0.7,-2.02 -1.65,-4.19 -1.83,-6.33 0.38,-3.43 5.27,-6.04 7.94,-3.28 3.2,4.78 4.42,11.08 6.77,16.34 0.83,2.34 2.7,4.82 1.48,7.35 -1.15,2.74 -3.89,2.51 -6.39,2.8 -6.66,0.29 -13.37,0.08 -20.03,-0.3 -2.06,-0.24 -4.79,-0.18 -6.51,-1.47 -0.34,-1.5 -0.38,-3.07 1.33,-3.67 3.97,-1.45 8.32,-2.01 12.44,-2.91 -16.13,-11.21 -35.56,-17.13 -55.24,-14.89 -16.21,1.68 -30.48,8.09 -44.34,16.3 -0.51,-1.5 -2.48,-3.02 -0.62,-4.27 12.7,-12.5 30.28,-19.37 47.91,-20.68 z"
       id="p1" />
    <path
       d="m 193.95,259.39 c 8.97,-0.42 18,-0.02 26.91,1.09 -0.17,1.19 0.32,2.95 -0.46,3.91 -4.1,2 -9.07,2.41 -13.49,3.49 12.77,8.27 26.74,14.11 42.07,15.08 21.25,1.47 40.56,-5.86 58.44,-16.67 0.48,0.9 0.94,1.8 1.4,2.71 0,1.1 -1.33,2.03 -2.01,2.8 -6.41,5.88 -13.98,10.54 -22.04,13.8 -27.08,10.79 -58.54,6.76 -82.71,-9.27 0.78,2 1.57,4 2.38,5.98 -0.98,1.53 -1.81,3.87 -3.72,4.38 -1.74,0.38 -4.07,0.56 -5.03,-1.3 -3.17,-5.13 -4.39,-11.59 -7.01,-17.07 -0.88,-2.13 -2.18,-4.19 -0.84,-6.45 1.4,-2.27 3.74,-2.25 6.11,-2.48 z"
       id="p2" />
  </defs>
  <g
     id="g6">
    <use
       fill="#3f90f3"
       xlink:href="#p1"
       id="use5"
       transform="matrix(1.0031054,0,0,1.0150338,-182.84528,-166.01994)" />
    <use
       fill="#7fd858"
       xlink:href="#p2"
       id="use6"
       transform="matrix(1.0031054,0,0,1.0150338,-182.84528,-166.01994)" />
  </g>
</svg>
